<svg xmlns="http://www.w3.org/2000/svg" xmlns:svg="http://www.w3.org/2000/svg" id="svg3409" width="1000.008" height="618.031" version="1.1" viewBox="0 0 1000.008 618.031"><metadata id="metadata3414"/><g id="layer1" transform="matrix(3.3557321,0,0,3.3557321,-1551.7864,-2007.0469)"><g id="g13" transform="matrix(2.5579399,0,0,2.5579399,884.90115,-11.427398)"><g id="XMLID_328_" transform="translate(-502.86126,-22.613497)"><rect style="fill:#ff5f00" id="rect19" width="31.5" height="56.6" x="380.2" y="268.6" class="st1"/><path style="fill:#eb001b" id="XMLID_330_" d="m 382.2,296.9 c 0,-11.5 5.4,-21.7 13.7,-28.3 -6.1,-4.8 -13.8,-7.7 -22.2,-7.7 -19.9,0 -36,16.1 -36,36 0,19.9 16.1,36 36,36 8.4,0 16.1,-2.9 22.2,-7.7 -8.3,-6.5 -13.7,-16.8 -13.7,-28.3 z" class="st2"/><path style="fill:#f79e1b" id="path22" d="m 454.2,296.9 c 0,19.9 -16.1,36 -36,36 -8.4,0 -16.1,-2.9 -22.2,-7.7 8.4,-6.6 13.7,-16.8 13.7,-28.3 0,-11.5 -5.4,-21.7 -13.7,-28.3 6.1,-4.8 13.8,-7.7 22.2,-7.7 19.9,0 36,16.2 36,36 z" class="st3"/></g></g></g></svg>